<svg width="23" height="31" viewBox="0 0 23 31" fill="none" xmlns="http://www.w3.org/2000/svg">
<path d="M10.2419 29.8259C1.60345 17.3027 0 16.0175 0 11.415C0 5.11066 5.11066 0 11.415 0C17.7194 0 22.83 5.11066 22.83 11.415C22.83 16.0175 21.2266 17.3027 12.5881 29.8259C12.0213 30.6448 10.8087 30.6447 10.2419 29.8259ZM11.415 16.1713C14.0418 16.1713 16.1713 14.0418 16.1713 11.415C16.1713 8.78819 14.0418 6.65876 11.415 6.65876C8.78819 6.65876 6.65876 8.78819 6.65876 11.415C6.65876 14.0418 8.78819 16.1713 11.415 16.1713Z" fill="black"/>
</svg>
