<svg width="62" height="62" viewBox="0 0 62 62" fill="none" xmlns="http://www.w3.org/2000/svg">
<path d="M61.9209 0H0.0181462C0.00812434 0 0 0.00812434 0 0.0181462V61.9209C0 61.9309 0.00812434 61.9391 0.0181462 61.9391H61.9209C61.9309 61.9391 61.9391 61.9309 61.9391 61.9209V0.0181462C61.9391 0.00812434 61.9309 0 61.9209 0Z" fill="black"/>
<path d="M61.9209 0H0.0181462C0.00812434 0 0 0.00812434 0 0.0181462V61.9209C0 61.9309 0.00812434 61.9391 0.0181462 61.9391H61.9209C61.9309 61.9391 61.9391 61.9309 61.9391 61.9209V0.0181462C61.9391 0.00812434 61.9309 0 61.9209 0Z" fill="url(#paint0_radial_23_371)"/>
<path d="M61.9209 0H0.0181462C0.00812434 0 0 0.00812434 0 0.0181462V61.9209C0 61.9309 0.00812434 61.9391 0.0181462 61.9391H61.9209C61.9309 61.9391 61.9391 61.9309 61.9391 61.9209V0.0181462C61.9391 0.00812434 61.9309 0 61.9209 0Z" fill="url(#paint1_linear_23_371)"/>
<path d="M39.8006 12.3394H22.1383C16.7265 12.3394 12.3394 16.7266 12.3394 22.1384V39.8007C12.3394 45.2125 16.7265 49.5996 22.1383 49.5996H39.8006C45.2124 49.5996 49.5996 45.2125 49.5996 39.8007V22.1384C49.5996 16.7266 45.2124 12.3394 39.8006 12.3394Z" stroke="white" stroke-width="6.01588"/>
<path d="M30.9695 39.6797C35.78 39.6797 39.6796 35.78 39.6796 30.9695C39.6796 26.159 35.78 22.2593 30.9695 22.2593C26.159 22.2593 22.2593 26.159 22.2593 30.9695C22.2593 35.78 26.159 39.6797 30.9695 39.6797Z" stroke="white" stroke-width="6.01588"/>
<path d="M41.9783 20.6867C42.3792 20.6867 42.7041 20.3617 42.7041 19.9608C42.7041 19.56 42.3792 19.235 41.9783 19.235C41.5774 19.235 41.2524 19.56 41.2524 19.9608C41.2524 20.3617 41.5774 20.6867 41.9783 20.6867Z" stroke="white" stroke-width="6.01588"/>
<defs>
<radialGradient id="paint0_radial_23_371" cx="0" cy="0" r="1" gradientUnits="userSpaceOnUse" gradientTransform="translate(24.7756 61.9391) scale(61.9391)">
<stop offset="0.1" stop-color="#FFDD55"/>
<stop offset="0.5" stop-color="#FF543E"/>
<stop offset="1" stop-color="#C837AB"/>
</radialGradient>
<linearGradient id="paint1_linear_23_371" x1="0" y1="0" x2="12.3878" y2="61.9391" gradientUnits="userSpaceOnUse">
<stop offset="0.1" stop-color="#3771C8"/>
<stop offset="0.5" stop-color="#6600FF" stop-opacity="0"/>
</linearGradient>
</defs>
</svg>
