<svg width="40" height="29" viewBox="0 0 40 29" fill="none" xmlns="http://www.w3.org/2000/svg">
<path d="M2.09182 0.00971316C1.44122 0.111278 0.858611 0.460849 0.472172 0.981525C0.0857334 1.5022 -0.0728847 2.15133 0.0312118 2.78611C0.135308 3.42089 0.493593 3.98933 1.02725 4.36637C1.5609 4.74341 2.22621 4.89817 2.87681 4.7966H10.2361L10.6777 5.99333L12.6892 11.9769L14.7008 17.9606C14.897 18.5829 15.7311 19.1573 16.3689 19.1573H33.5406C34.2275 19.1573 35.0125 18.5829 35.2087 17.9606L39.1827 5.99333C39.379 5.37103 39.0846 4.7966 38.3977 4.7966H16.6142L14.7498 1.35004C14.5513 0.954451 14.2446 0.619997 13.8638 0.38351C13.4829 0.147023 13.0425 0.0176762 12.5911 0.00971316L2.77869 0.00971316C2.6318 -0.00323772 2.48402 -0.00323772 2.33713 0.00971316C2.23909 0.00396371 2.14079 0.00396371 2.04276 0.00971316L2.09182 0.00971316ZM17.5954 23.9442C16.2217 23.9442 15.1423 24.9973 15.1423 26.3376C15.1423 27.6779 16.2217 28.7311 17.5954 28.7311C18.9692 28.7311 20.0485 27.6779 20.0485 26.3376C20.0485 24.9973 18.9692 23.9442 17.5954 23.9442ZM32.3141 23.9442C30.9403 23.9442 29.8609 24.9973 29.8609 26.3376C29.8609 27.6779 30.9403 28.7311 32.3141 28.7311C33.6878 28.7311 34.7672 27.6779 34.7672 26.3376C34.7672 24.9973 33.6878 23.9442 32.3141 23.9442Z" fill="#D38235"/>
</svg>
