<svg width="62" height="62" viewBox="0 0 62 62" fill="none" xmlns="http://www.w3.org/2000/svg">
<path d="M61.9209 0H0.0181462C0.00812434 0 0 0.00812434 0 0.0181462V61.9209C0 61.9309 0.00812434 61.9391 0.0181462 61.9391H61.9209C61.9309 61.9391 61.9391 61.9309 61.9391 61.9209V0.0181462C61.9391 0.00812434 61.9309 0 61.9209 0Z" fill="#744F1A"/>
<path d="M52.4934 15.4848H9.44571C9.44037 15.4848 9.43604 15.4891 9.43604 15.4944V46.4446C9.43604 46.45 9.44037 46.4543 9.44571 46.4543H52.4934C52.4987 46.4543 52.503 46.45 52.503 46.4446V15.4944C52.503 15.4891 52.4987 15.4848 52.4934 15.4848Z" fill="white"/>
<path d="M52.503 15.4848L32.5422 35.3246C31.6954 36.2924 30.2437 36.2924 29.3969 35.3246L9.43604 15.4848M9.43604 46.4543L25.0418 30.9695M52.503 46.4543L36.8973 30.9695" stroke="#744F1A" stroke-width="4.01059"/>
</svg>
