<svg width="62" height="62" viewBox="0 0 62 62" fill="none" xmlns="http://www.w3.org/2000/svg">
<path d="M61.9209 0H0.0181462C0.00812434 0 0 0.00812434 0 0.0181462V61.9209C0 61.9309 0.00812434 61.9391 0.0181462 61.9391H61.9209C61.9309 61.9391 61.9391 61.9309 61.9391 61.9209V0.0181462C61.9391 0.00812434 61.9309 0 61.9209 0Z" fill="#25D366"/>
<path d="M14.8799 47.5431L16.5735 39.6797C14.3967 36.2462 13.5475 32.1365 14.1853 28.1214C14.8231 24.1064 16.904 20.4621 20.0376 17.8722C23.1712 15.2823 27.1422 13.9248 31.2055 14.0545C35.2688 14.1841 39.1452 15.792 42.1073 18.5764C45.0695 21.3608 46.9138 25.1304 47.2943 29.1779C47.6748 33.2255 46.5653 37.2727 44.174 40.5604C41.7827 43.8481 38.274 46.1503 34.306 47.0349C30.3381 47.9196 26.1837 47.326 22.6223 45.3655L14.8799 47.5431Z" fill="#25D366" stroke="white" stroke-width="5.21376"/>
<path d="M37.2603 33.0261C36.8974 32.7841 36.5345 32.6632 36.1715 33.1471L34.7198 35.0827C34.3569 35.3246 34.115 35.4456 33.6311 35.2036C31.8165 34.2358 29.276 33.1471 27.0984 29.5178C26.9775 29.0339 27.2194 28.792 27.4614 28.55L28.5501 26.8564C28.7921 26.6144 28.6711 26.3725 28.5501 26.1305L27.0984 22.6223C26.7355 21.6545 26.3726 21.7754 26.0097 21.7754H25.0419C24.7999 21.7754 24.316 21.8964 23.8321 22.3803C21.1707 25.0418 22.2594 28.792 24.195 31.2115C24.558 31.6954 26.9775 36.0505 32.1794 38.349C36.0506 40.0426 36.8974 39.8007 37.9862 39.5587C39.3169 39.4377 40.6476 38.349 41.2525 37.2602C41.3735 36.8973 41.9783 35.3246 41.4944 35.0827" fill="white"/>
</svg>
