<svg width="62" height="62" viewBox="0 0 62 62" fill="none" xmlns="http://www.w3.org/2000/svg">
<path fill-rule="evenodd" clip-rule="evenodd" d="M58.5208 61.9395C60.4085 61.9395 61.9391 60.4088 61.9391 58.5211V3.41846C61.9391 1.53007 60.4083 0 58.5208 0H3.41846C1.53007 0 0 1.5303 0 3.41846V58.5208C0 60.4088 1.53007 61.9393 3.41846 61.9393H58.5208V61.9395ZM42.737 61.9395V37.9532H50.7881L51.9935 28.6053H42.7368V22.637C42.7368 19.9306 43.4882 18.0863 47.3694 18.0863L52.3193 18.0839V9.72322C51.4632 9.60951 48.5247 9.35492 45.1065 9.35492C37.9695 9.35492 33.0834 13.7112 33.0834 21.7115V28.6053H25.0116V37.9532H33.0834V61.9393H42.737V61.9395Z" fill="#485A96"/>
</svg>
